<?xml version="1.0" encoding="UTF-8" standalone="no"?>
<!-- Created with Inkscape (http://www.inkscape.org/) -->

<svg
   width="720"
   height="215"
   viewBox="0 0 190.5 56.885416"
   version="1.1"
   id="svg5"
   xml:space="preserve"
   inkscape:version="1.2.2 (b0a8486541, 2022-12-01)"
   sodipodi:docname="caosdba.svg"
   xmlns:inkscape="http://www.inkscape.org/namespaces/inkscape"
   xmlns:sodipodi="http://sodipodi.sourceforge.net/DTD/sodipodi-0.dtd"
   xmlns:xlink="http://www.w3.org/1999/xlink"
   xmlns="http://www.w3.org/2000/svg"
   xmlns:svg="http://www.w3.org/2000/svg"><sodipodi:namedview
     id="namedview7"
     pagecolor="#ffffff"
     bordercolor="#666666"
     borderopacity="1.0"
     inkscape:showpageshadow="false"
     inkscape:pageopacity="1"
     inkscape:pagecheckerboard="false"
     inkscape:deskcolor="#ffffff"
     inkscape:document-units="px"
     showgrid="false"
     inkscape:zoom="1.3238075"
     inkscape:cx="340.30628"
     inkscape:cy="72.895795"
     inkscape:window-width="1920"
     inkscape:window-height="1008"
     inkscape:window-x="0"
     inkscape:window-y="0"
     inkscape:window-maximized="1"
     inkscape:current-layer="layer5"
     showguides="true"
     showborder="false"
     borderlayer="false"
     shape-rendering="auto"><inkscape:grid
       type="xygrid"
       id="grid10"
       originx="0"
       originy="0" /></sodipodi:namedview><defs
     id="defs2"><color-profile
       name="sRGB"
       xlink:href="file:///usr/share/color/icc/colord/sRGB.icc"
       id="color-profile344" /></defs><g
     inkscape:groupmode="layer"
     id="layer6"
     inkscape:label="Sfondo"
     style="display:none"
     sodipodi:insensitive="true"><rect
       style="fill:#fb9f5e;fill-opacity:1;fill-rule:nonzero;stroke:none;stroke-width:2.49762;stroke-linecap:round;stroke-linejoin:round;stroke-dasharray:none;stroke-opacity:1;paint-order:stroke fill markers"
       id="rect5845"
       width="207.69792"
       height="58.208332"
       x="-0.65854466"
       y="193.29495" /></g><g
     inkscape:groupmode="layer"
     id="layer2"
     inkscape:label="Saetta" /><g
     inkscape:groupmode="layer"
     id="layer3"
     inkscape:label="Luna" /><g
     inkscape:groupmode="layer"
     id="layer4"
     inkscape:label="Tamburo" /><g
     inkscape:groupmode="layer"
     id="layer5"
     inkscape:label="Nome"
     style="display:inline"><g
       id="g340"><path
         id="path5762"
         style="fill:#006594;fill-opacity:1;fill-rule:nonzero;stroke:#00426c;stroke-width:0.263876;stroke-linecap:butt;stroke-linejoin:miter;stroke-dasharray:none;stroke-opacity:1;paint-order:markers fill stroke"
         inkscape:label="Saetta"
         d="M 39.294161,0.09158542 9.6459577,30.679714 20.903923,30.794737 6.3882352,54.56507 c 0,0 12.3096638,-12.314756 18.3270648,-17.987747 6.017401,-5.672981 17.77752,-16.050082 17.77752,-16.050082 l -9.196916,-0.07291 z M 25.652607,6.5800185 A 25.520718,25.4567 0 0 0 0.13215475,32.036685 25.520718,25.4567 0 0 0 6.9614053,49.364692 l 3.1817107,-6.230528 c 0,0 -6.6662403,-9.816068 -0.8705406,-20.774649 C 15.068274,11.400934 24.2808,10.97372 24.2808,10.97372 L 28.703865,6.763958 A 25.520718,25.4567 0 0 0 25.652607,6.5800185 Z m 13.261494,3.1101888 -0.786825,3.1395817 c 0,0 2.86415,0.615815 6.490792,3.338224 3.626644,2.722418 6.372666,6.91711 6.372666,6.91711 0,0 -2.60523,-5.799778 -5.853423,-8.939399 -3.248191,-3.139612 -6.22321,-4.4555167 -6.22321,-4.4555167 z M 41.028052,25.460082 29.973469,35.534006 c 0,0 18.331455,2.751762 21.729107,-3.314398 3.083415,-5.505138 -10.674524,-6.759526 -10.674524,-6.759526 z m 11.065368,9.341214 c 0,0 -1.016899,3.068644 -10.948269,4.120586 -5.972814,0.632638 -13.590194,-1.111217 -13.590194,-1.111217 l -4.475452,4.153506 c 0,0 4.410329,3.713005 14.790461,3.259167 C 51.562915,44.624655 52.09342,40.24186 52.09342,40.24186 Z m 0.0031,9.064563 c 0,0 -3.43791,4.320781 -15.821242,4.118036 C 24.545156,47.791848 21.982997,44.21802 21.982997,44.21802 v 5.500855 c 0,0 3.73689,4.363223 14.521851,4.223438 14.633493,-0.189647 15.591667,-5.110176 15.591667,-5.110176 z m -35.616669,4.471722 -4.985965,4.749409 v 5.08e-4 c 0,0 4.37081,2.406971 8.494833,3.267783 4.124024,0.860771 10.44957,0.05269 10.44957,0.05269 0,0 -4.759574,-0.715219 -7.741906,-2.37192 C 19.714052,52.37934 19.41863,49.769036 19.41863,49.769036 Z"><desc
           id="desc5760">Saetta</desc></path><path
         d="m 57.610912,45.251343 v -0.446125 q 0,-2.275237 0.174694,-3.814367 0.174694,-1.550284 0.602694,-2.520605 0.428001,-0.970322 1.161716,-1.483365 0.74245,-0.513043 1.860492,-0.691493 1.118043,-0.189604 2.690289,-0.189604 h 3.520087 q 1.799349,0 3.030942,0.223062 1.240329,0.211909 1.991513,0.858791 0.759919,0.635728 1.100573,1.884877 0.340654,1.237996 0.340654,3.290171 h -1.677064 q 0,-1.617202 -0.227102,-2.509453 Q 71.953298,38.94983 71.411746,38.548318 70.878928,38.146805 69.95305,38.05758 69.027172,37.957203 67.620884,37.957203 h -3.520087 q -1.249063,0 -2.105063,0.100377 -0.856002,0.08922 -1.397553,0.434972 -0.532817,0.334593 -0.821062,1.070699 -0.279511,0.736106 -0.384327,2.007562 -0.104816,1.271456 -0.104816,3.234405 v 0.446125 q 0,1.89603 0.104816,3.145179 0.104816,1.24915 0.384327,1.996409 0.288245,0.747259 0.821062,1.115312 0.541551,0.368053 1.397553,0.479584 0.856,0.11153 2.105063,0.11153 h 3.520087 q 1.406288,0 2.332166,-0.07807 0.925878,-0.07807 1.458696,-0.457277 0.541552,-0.379206 0.768654,-1.260303 0.227102,-0.892249 0.227102,-2.498299 h 1.677064 q 0,2.052175 -0.340654,3.279018 -0.340654,1.226844 -1.100573,1.851418 -0.751184,0.613422 -1.991513,0.814178 -1.231593,0.200756 -3.030942,0.200756 h -3.520087 q -1.965308,0 -3.23184,-0.345747 -1.266532,-0.334593 -1.982778,-1.24915 -0.707511,-0.914556 -0.995756,-2.632136 -0.279511,-1.717581 -0.279511,-4.472401 z"
         id="path309"
         style="font-weight:bold;font-size:20.214px;font-family:Michroma;-inkscape-font-specification:'Michroma, Bold';letter-spacing:0.481283px;fill:#006594;stroke:#00426c;stroke-width:0.181077;paint-order:markers fill stroke" /><path
         d="m 76.213752,53.593877 7.826296,-17.131192 h 2.236084 l 7.826293,17.131192 h -1.956568 l -1.67707,-3.925898 H 79.847389 l -1.677063,3.925898 z m 4.472169,-5.710398 h 8.944335 L 85.15809,37.890284 Z"
         id="path311"
         style="font-weight:bold;font-size:20.214px;font-family:Michroma;-inkscape-font-specification:'Michroma, Bold';letter-spacing:0.481283px;fill:#006594;stroke:#00426c;stroke-width:0.181077;paint-order:markers fill stroke" /><path
         d="m 102.6953,53.950777 q -1.96531,0 -3.231848,-0.345747 -1.266526,-0.334593 -1.982772,-1.24915 -0.707511,-0.914556 -0.995762,-2.632136 -0.279507,-1.717581 -0.279507,-4.472401 v -0.446125 q 0,-2.275237 0.174692,-3.814367 0.174692,-1.550284 0.602696,-2.520605 0.427996,-0.970322 1.161711,-1.483365 0.74245,-0.513043 1.8605,-0.691493 1.11803,-0.189604 2.69029,-0.189604 h 3.52008 q 1.57224,0 2.69029,0.189604 1.11804,0.17845 1.85175,0.691493 0.74245,0.513043 1.17046,1.483365 0.428,0.970321 0.6027,2.520605 0.17469,1.53913 0.17469,3.814367 v 0.446125 q 0,2.75482 -0.28824,4.472401 -0.27952,1.71758 -0.99577,2.632136 -0.70751,0.914557 -1.97403,1.24915 -1.26654,0.345747 -3.23185,0.345747 z m 0,-1.851419 h 3.52008 q 1.24906,0 2.10506,-0.11153 0.856,-0.111529 1.38882,-0.479584 0.54156,-0.368053 0.82106,-1.115312 0.28825,-0.747259 0.39307,-1.996408 0.10482,-1.24915 0.10482,-3.14518 v -0.446125 q 0,-1.962949 -0.10482,-3.234405 -0.10482,-1.271455 -0.39307,-2.007562 -0.2795,-0.736106 -0.82106,-1.070699 -0.53282,-0.345747 -1.38882,-0.434972 -0.856,-0.100377 -2.10506,-0.100377 h -3.52008 q -1.24907,0 -2.10507,0.100377 -0.855996,0.08922 -1.39755,0.434972 -0.53282,0.334593 -0.821062,1.070699 -0.279516,0.736107 -0.384331,2.007562 -0.104815,1.271456 -0.104815,3.234405 v 0.446125 q 0,1.89603 0.104815,3.14518 0.104815,1.249149 0.384331,1.996408 0.288242,0.747259 0.821062,1.115312 0.541554,0.368053 1.39755,0.479584 0.856,0.11153 2.10507,0.11153 z"
         id="path313"
         style="font-weight:bold;font-size:20.214px;font-family:Michroma;-inkscape-font-specification:'Michroma, Bold';letter-spacing:0.481283px;fill:#006594;stroke:#00426c;stroke-width:0.181077;paint-order:markers fill stroke" /><path
         d="m 130.20754,48.641892 q 0,-0.992629 -0.12229,-1.561438 -0.12229,-0.568809 -0.55028,-0.836483 -0.42801,-0.278828 -1.32768,-0.3569 -0.89967,-0.08922 -2.46318,-0.122684 l -4.8565,-0.08922 q -1.79935,-0.03346 -2.89119,-0.278828 -1.09184,-0.245369 -1.65086,-0.769565 -0.55902,-0.53535 -0.75118,-1.4276 -0.18343,-0.89225 -0.18343,-2.230624 0,-1.461059 0.2533,-2.409074 0.26204,-0.948015 0.93461,-1.483365 0.68131,-0.53535 1.92164,-0.747259 1.24032,-0.223062 3.20564,-0.223062 h 3.73845 q 1.78189,0 2.9698,0.14499 1.18792,0.144991 1.8867,0.669187 0.69878,0.524197 0.99575,1.628356 0.30571,1.104158 0.30571,3.033648 h -1.67706 q 0,-1.494517 -0.2271,-2.25293 -0.21836,-0.769565 -0.73371,-1.048393 -0.50662,-0.278828 -1.37135,-0.301134 -0.86474,-0.02231 -2.14874,-0.02231 h -3.65111 q -1.56351,0 -2.50685,0.07807 -0.93462,0.07807 -1.41503,0.3569 -0.48041,0.278828 -0.64637,0.892249 -0.15722,0.613423 -0.15722,1.684122 0,0.903403 0.11355,1.449905 0.11355,0.546503 0.50662,0.836484 0.40179,0.278828 1.23158,0.390359 0.8298,0.100377 2.26229,0.122686 l 5.20589,0.08922 q 1.83429,0.03346 2.92612,0.278828 1.10058,0.234217 1.64213,0.769566 0.55028,0.53535 0.72499,1.449906 0.18342,0.903402 0.18342,2.28639 0,1.505671 -0.22711,2.531758 -0.21836,1.014934 -0.856,1.628356 -0.63763,0.613421 -1.84301,0.881096 -1.2054,0.267675 -3.1707,0.267675 h -4.08785 q -1.79061,0 -3.00474,-0.200756 -1.21412,-0.200756 -1.9391,-0.803025 -0.71625,-0.613421 -1.0307,-1.817959 -0.31444,-1.204537 -0.31444,-3.212099 h 1.67706 q 0,1.572591 0.2009,2.431381 0.20089,0.85879 0.69877,1.237996 0.50662,0.368054 1.40629,0.446126 0.90841,0.06692 2.30596,0.06692 h 4.00049 q 1.56352,0 2.47193,-0.122684 0.90841,-0.133836 1.34515,-0.490737 0.43673,-0.368053 0.55901,-1.048393 0.13103,-0.68034 0.13103,-1.795652 z"
         id="path315"
         style="font-weight:bold;font-size:20.214px;font-family:Michroma;-inkscape-font-specification:'Michroma, Bold';letter-spacing:0.481283px;fill:#006594;stroke:#00426c;stroke-width:0.181077;paint-order:markers fill stroke" /><path
         d="M 135.09688,53.593877 V 36.462685 h 9.95757 q 1.9653,0 3.23184,0.301134 1.26653,0.301134 1.97405,1.171077 0.71624,0.85879 0.99575,2.509451 0.28824,1.650663 0.28824,4.360871 v 0.446125 q 0,2.620983 -0.28824,4.271645 -0.27951,1.639508 -0.99575,2.531758 -0.70752,0.881097 -1.97405,1.215691 -1.26654,0.32344 -3.23184,0.32344 z m 1.67707,-1.851418 h 8.2805 q 1.56351,0 2.51559,-0.189603 0.95208,-0.189603 1.44996,-0.825331 0.49789,-0.635728 0.67258,-1.940643 0.17469,-1.304915 0.17469,-3.535539 v -0.446125 q 0,-1.851418 -0.10482,-3.055955 -0.10481,-1.204536 -0.39305,-1.896031 -0.27952,-0.702646 -0.82107,-1.026087 -0.53281,-0.334593 -1.38881,-0.423818 -0.85601,-0.08922 -2.10507,-0.08922 h -8.2805 z"
         id="path317"
         style="font-weight:bold;font-size:20.214px;font-family:Michroma;-inkscape-font-specification:'Michroma, Bold';letter-spacing:0.481283px;fill:#006594;stroke:#00426c;stroke-width:0.181077;paint-order:markers fill stroke" /><path
         d="M 154.76536,53.593877 V 36.462685 h 10.69128 q 1.51984,0 2.48939,0.368052 0.97829,0.3569 1.44122,1.282609 0.47168,0.914556 0.47168,2.598677 0,1.516824 -0.55029,2.509452 -0.55029,0.992627 -1.68579,1.093005 1.4849,0.189603 2.14,1.360682 0.6551,1.159924 0.6551,2.922116 0,1.527978 -0.27951,2.509453 -0.27077,0.981474 -0.91714,1.527978 -0.64637,0.53535 -1.75568,0.747259 -1.10057,0.211909 -2.75143,0.211909 z m 1.67706,-9.993196 h 7.81756 q 1.35388,0 2.21862,-0.122685 0.86474,-0.122684 1.284,-0.724952 0.41927,-0.602269 0.41927,-2.041021 0,-1.126466 -0.25331,-1.650662 -0.24457,-0.524197 -0.83853,-0.669187 -0.59396,-0.144991 -1.63339,-0.144991 h -9.01422 z m 0,8.208696 h 8.27177 q 1.19666,0 1.97405,-0.07807 0.78612,-0.07807 1.23158,-0.379206 0.45421,-0.301134 0.63764,-0.948015 0.18342,-0.658033 0.18342,-1.806805 0,-1.182231 -0.34938,-1.840265 -0.34066,-0.658034 -0.96081,-0.948015 -0.61144,-0.289981 -1.42376,-0.3569 -0.81233,-0.06692 -1.74695,-0.06692 h -7.81756 z"
         id="path319"
         style="font-weight:bold;font-size:20.214px;font-family:Michroma;-inkscape-font-specification:'Michroma, Bold';letter-spacing:0.481283px;fill:#006594;stroke:#00426c;stroke-width:0.181077;paint-order:markers fill stroke" /><path
         d="m 172.52094,53.593877 7.8263,-17.131192 h 2.23608 l 7.8263,17.131192 h -1.95657 l -1.67707,-3.925898 h -10.6214 l -1.67706,3.925898 z m 4.47217,-5.710398 h 8.94434 l -4.47217,-9.993195 z"
         id="path321"
         style="font-weight:bold;font-size:20.214px;font-family:Michroma;-inkscape-font-specification:'Michroma, Bold';letter-spacing:0.481283px;fill:#006594;stroke:#00426c;stroke-width:0.181077;paint-order:markers fill stroke" /></g></g></svg>
