<svg xmlns="http://www.w3.org/2000/svg" xml:space="preserve" width="720.19" height="215.002" viewBox="0 0 190.55 56.886"><g style="display:inline"><path d="M39.294.092 9.646 30.68l11.258.115-14.516 23.77s12.31-12.315 18.327-17.988 17.778-16.05 17.778-16.05l-9.197-.073zM25.653 6.58A25.52 25.457 0 0 0 .133 32.037 25.52 25.457 0 0 0 6.96 49.365l3.182-6.23s-6.666-9.817-.87-20.775C15.068 11.4 24.28 10.974 24.28 10.974l4.423-4.21a25.52 25.457 0 0 0-3.051-.184Zm13.261 3.11-.787 3.14s2.864.616 6.491 3.338 6.373 6.917 6.373 6.917-2.605-5.8-5.854-8.94-6.223-4.455-6.223-4.455zm2.114 15.77L29.973 35.534s18.332 2.752 21.73-3.314c3.083-5.506-10.675-6.76-10.675-6.76zm11.065 9.341s-1.016 3.069-10.948 4.12c-5.973.634-13.59-1.11-13.59-1.11l-4.475 4.153s4.41 3.713 14.79 3.26c13.693-.6 14.223-4.982 14.223-4.982Zm.004 9.065s-3.438 4.32-15.822 4.118c-11.73-.192-14.292-3.766-14.292-3.766v5.5s3.737 4.364 14.522 4.224c14.633-.19 15.592-5.11 15.592-5.11zM16.48 48.338l-4.986 4.749s4.37 2.407 8.495 3.268 10.45.053 10.45.053-4.76-.715-7.743-2.372c-2.982-1.657-3.277-4.267-3.277-4.267Z" style="fill:#006594;fill-opacity:1;fill-rule:nonzero;stroke:#00426c;stroke-width:.263876;stroke-linecap:butt;stroke-linejoin:miter;stroke-dasharray:none;stroke-opacity:1;paint-order:markers fill stroke"><desc>Saetta</desc></path><path d="M57.61 45.251v-.446q0-2.275.176-3.814.174-1.55.602-2.52.428-.971 1.162-1.484.742-.513 1.86-.692 1.119-.19 2.69-.19h3.52q1.8 0 3.032.224 1.24.212 1.991.859.76.635 1.1 1.885.342 1.238.342 3.29h-1.677q0-1.618-.228-2.51-.227-.903-.768-1.305-.533-.401-1.459-.49-.926-.1-2.332-.1H64.1q-1.25 0-2.105.1-.856.089-1.398.435-.533.334-.82 1.07-.28.736-.385 2.008-.105 1.271-.105 3.234v.446q0 1.896.105 3.146t.384 1.996q.288.747.821 1.115.542.368 1.398.48t2.105.111h3.52q1.406 0 2.332-.078t1.459-.457q.541-.38.768-1.26.228-.893.228-2.499h1.677q0 2.053-.341 3.28-.34 1.226-1.1 1.85-.752.614-1.992.815-1.232.2-3.031.2H64.1q-1.966 0-3.232-.345-1.267-.335-1.983-1.25-.707-.914-.996-2.631-.28-1.718-.28-4.473zM76.214 53.594l7.826-17.131h2.236l7.826 17.13h-1.956l-1.677-3.925H79.847l-1.677 3.926zm4.472-5.71h8.944l-4.472-9.994ZM102.695 53.95q-1.965 0-3.232-.345-1.266-.335-1.982-1.25-.708-.914-.996-2.631-.28-1.718-.28-4.473v-.446q0-2.275.175-3.814.175-1.55.603-2.52.428-.971 1.162-1.484.742-.513 1.86-.692 1.118-.19 2.69-.19h3.52q1.573 0 2.69.19 1.119.179 1.852.692.743.513 1.17 1.483.429.97.604 2.52.174 1.54.174 3.815v.446q0 2.755-.288 4.473-.28 1.717-.996 2.632-.707.914-1.974 1.249-1.266.346-3.232.346zm0-1.85h3.52q1.25 0 2.105-.112.856-.112 1.39-.48.54-.368.82-1.115.289-.747.393-1.996t.105-3.146v-.446q0-1.963-.105-3.234-.104-1.272-.393-2.008-.28-.736-.82-1.07-.534-.346-1.39-.435-.856-.1-2.105-.1h-3.52q-1.249 0-2.105.1-.856.089-1.397.435-.533.334-.821 1.07-.28.736-.385 2.008-.105 1.271-.105 3.234v.446q0 1.896.105 3.146t.385 1.996q.288.747.82 1.115.542.368 1.398.48t2.105.111zM130.208 48.642q0-.993-.123-1.562-.122-.568-.55-.836-.428-.279-1.328-.357-.9-.09-2.463-.123l-4.856-.089q-1.8-.033-2.892-.279-1.091-.245-1.65-.77-.56-.535-.752-1.427-.183-.892-.183-2.23 0-1.462.253-2.41.262-.948.935-1.483.681-.535 1.922-.747 1.24-.223 3.205-.223h3.739q1.781 0 2.97.145 1.187.145 1.886.669t.996 1.628q.306 1.104.306 3.034h-1.678q0-1.495-.227-2.253-.218-.77-.733-1.048-.507-.28-1.372-.301-.864-.023-2.148-.023h-3.652q-1.563 0-2.506.078-.935.078-1.415.357t-.647.892q-.157.614-.157 1.685 0 .903.114 1.45.113.546.506.836.402.279 1.232.39.83.1 2.262.123l5.206.09q1.834.033 2.926.278 1.1.234 1.642.77.55.535.725 1.45.184.903.184 2.286 0 1.506-.228 2.532-.218 1.015-.856 1.628-.637.613-1.843.881t-3.17.268H121.7q-1.79 0-3.005-.201-1.214-.2-1.939-.803-.716-.613-1.03-1.818t-.315-3.212h1.677q0 1.573.2 2.431.202.86.7 1.238.506.368 1.406.446.908.067 2.306.067h4q1.564 0 2.472-.122.909-.134 1.345-.491.437-.368.56-1.048.13-.68.13-1.796zM135.097 53.594V36.463h9.957q1.966 0 3.232.3 1.267.302 1.974 1.172.717.859.996 2.51.288 1.65.288 4.36v.446q0 2.621-.288 4.272-.28 1.64-.996 2.532-.707.88-1.974 1.215-1.266.324-3.232.324zm1.677-1.852h8.28q1.564 0 2.516-.19.952-.189 1.45-.824.498-.636.673-1.941.174-1.305.174-3.536v-.446q0-1.851-.105-3.056-.104-1.204-.393-1.896-.28-.702-.82-1.026-.533-.334-1.39-.424-.855-.089-2.105-.089h-8.28zM154.765 53.594V36.463h10.692q1.52 0 2.489.368.978.357 1.441 1.282.472.915.472 2.599 0 1.517-.55 2.51t-1.686 1.092q1.485.19 2.14 1.361.655 1.16.655 2.922 0 1.528-.28 2.51-.27.981-.917 1.528-.646.535-1.755.747-1.101.212-2.752.212zm1.677-9.993h7.818q1.354 0 2.219-.123t1.284-.725.419-2.041q0-1.126-.253-1.65-.245-.525-.839-.67t-1.633-.145h-9.015zm0 8.208h8.272q1.197 0 1.974-.078.786-.078 1.232-.379.454-.301.637-.948.184-.658.184-1.807 0-1.182-.35-1.84-.34-.658-.96-.948-.612-.29-1.424-.357t-1.747-.067h-7.818zM172.52 53.594l7.827-17.131h2.236l7.827 17.13h-1.957l-1.677-3.925h-10.621l-1.677 3.926zm4.473-5.71h8.944l-4.472-9.994z" style="font-weight:700;font-size:20.214px;font-family:Michroma;-inkscape-font-specification:&quot;Michroma, Bold&quot;;letter-spacing:.481283px;fill:#006594;stroke:#00426c;stroke-width:.181077;paint-order:markers fill stroke"/></g></svg>