<?xml version="1.0" encoding="UTF-8" standalone="no"?>
<!-- Created with Inkscape (http://www.inkscape.org/) -->

<svg
   width="720"
   height="215"
   viewBox="0 0 190.5 56.885416"
   version="1.1"
   id="svg5"
   xml:space="preserve"
   inkscape:version="1.2.2 (b0a8486541, 2022-12-01)"
   sodipodi:docname="caosdba.svg"
   xmlns:inkscape="http://www.inkscape.org/namespaces/inkscape"
   xmlns:sodipodi="http://sodipodi.sourceforge.net/DTD/sodipodi-0.dtd"
   xmlns:xlink="http://www.w3.org/1999/xlink"
   xmlns="http://www.w3.org/2000/svg"
   xmlns:svg="http://www.w3.org/2000/svg"><sodipodi:namedview
     id="namedview7"
     pagecolor="#ffffff"
     bordercolor="#666666"
     borderopacity="1.0"
     inkscape:showpageshadow="false"
     inkscape:pageopacity="1"
     inkscape:pagecheckerboard="false"
     inkscape:deskcolor="#ffffff"
     inkscape:document-units="px"
     showgrid="false"
     inkscape:zoom="1.3238075"
     inkscape:cx="340.30627"
     inkscape:cy="72.140397"
     inkscape:window-width="1920"
     inkscape:window-height="1008"
     inkscape:window-x="0"
     inkscape:window-y="0"
     inkscape:window-maximized="1"
     inkscape:current-layer="layer5"
     showguides="true"
     showborder="false"
     borderlayer="false"
     shape-rendering="auto"><inkscape:grid
       type="xygrid"
       id="grid10"
       originx="0"
       originy="0" /></sodipodi:namedview><defs
     id="defs2"><color-profile
       name="sRGB"
       xlink:href="file:///usr/share/color/icc/colord/sRGB.icc"
       id="color-profile539" /></defs><g
     inkscape:groupmode="layer"
     id="layer6"
     inkscape:label="Sfondo"
     style="display:none"
     sodipodi:insensitive="true"><rect
       style="fill:#fb9f5e;fill-opacity:1;fill-rule:nonzero;stroke:none;stroke-width:2.49762;stroke-linecap:round;stroke-linejoin:round;stroke-dasharray:none;stroke-opacity:1;paint-order:stroke fill markers"
       id="rect5845"
       width="207.69792"
       height="58.208332"
       x="-0.65854466"
       y="193.29495" /></g><g
     inkscape:groupmode="layer"
     id="layer2"
     inkscape:label="Saetta" /><g
     inkscape:groupmode="layer"
     id="layer3"
     inkscape:label="Luna" /><g
     inkscape:groupmode="layer"
     id="layer4"
     inkscape:label="Tamburo" /><g
     inkscape:groupmode="layer"
     id="layer5"
     inkscape:label="Nome"
     style="display:inline"><g
       id="g519"
       transform="matrix(0.9986156,0,0,0.9960445,0.12924267,-193.09763)"><path
         id="path5762"
         style="fill:#006594;fill-opacity:1;fill-rule:nonzero;stroke:#00426c;stroke-width:0.264583;stroke-linecap:butt;stroke-linejoin:miter;stroke-dasharray:none;stroke-opacity:1;paint-order:markers fill stroke"
         inkscape:label="Saetta"
         d="m 39.219213,193.95641 -29.6893048,30.7096 11.2735728,0.11548 -14.5358115,23.86473 c 0,0 12.3267285,-12.36366 18.3524715,-18.05918 6.025743,-5.69551 17.802166,-16.11382 17.802166,-16.11382 l -9.209666,-0.0732 z m -13.660465,6.5142 A 25.556098,25.557794 0 0 0 0.00291612,226.02837 25.556098,25.557794 0 0 0 6.8416342,243.42519 l 3.1861218,-6.25527 c 0,0 -6.6754821,-9.85505 -0.8717477,-20.85715 5.8037337,-11.0021 15.0290307,-11.43101 15.0290307,-11.43101 l 4.429197,-4.22648 a 25.556098,25.557794 0 0 0 -3.055488,-0.18467 z m 13.279879,3.12254 -0.787916,3.15205 c 0,0 2.86812,0.61826 6.49979,3.35148 3.631672,2.73323 6.381501,6.94458 6.381501,6.94458 0,0 -2.608842,-5.82281 -5.861538,-8.9749 -3.252694,-3.15208 -6.231837,-4.47321 -6.231837,-4.47321 z m 2.116881,15.8325 -11.069908,10.11393 c 0,0 18.356868,2.76269 21.75923,-3.32756 3.08769,-5.527 -10.689322,-6.78637 -10.689322,-6.78637 z m 11.080708,9.37831 c 0,0 -1.018308,3.08083 -10.963447,4.13695 -5.981094,0.63515 -13.609034,-1.11563 -13.609034,-1.11563 l -4.481656,4.17 c 0,0 4.416443,3.72775 14.810965,3.27211 13.711932,-0.60106 14.243172,-5.00126 14.243172,-5.00126 z m 0.0031,9.10056 c 0,0 -3.442676,4.33794 -15.843176,4.13439 -11.746378,-0.19281 -14.312089,-3.78083 -14.312089,-3.78083 v 5.5227 c 0,0 3.74207,4.38055 14.541983,4.24021 14.653779,-0.1904 15.613282,-5.13047 15.613282,-5.13047 z m -35.666046,4.48948 -4.992877,4.76827 v 5.1e-4 c 0,0 4.37687,2.41653 8.50661,3.28076 4.129741,0.86419 10.464056,0.0529 10.464056,0.0529 0,0 -4.766172,-0.71806 -7.752638,-2.38134 -2.986466,-1.66329 -3.282297,-4.28396 -3.282297,-4.28396 z"><desc
           id="desc5760">Saetta</desc></path><text
         x="63.860813"
         y="218.89789"
         class="text"
         id="text5764"
         style="font-style:normal;font-variant:normal;font-weight:bold;font-stretch:normal;font-size:20.2681px;font-family:Michroma;-inkscape-font-specification:'Michroma, Bold';font-variant-ligatures:normal;font-variant-caps:normal;font-variant-numeric:normal;font-variant-east-asian:normal;letter-spacing:0.482572px;fill:#006594;fill-opacity:1;fill-rule:nonzero;stroke:#00426c;stroke-width:0.181562;stroke-dasharray:none;stroke-opacity:1;paint-order:markers fill stroke"
         inkscape:label="#project_name"
         transform="scale(0.8838247,1.1314461)">CAOSDBA</text></g></g></svg>
